Atma-Light.ufo
<glyph name="four" format="1">
  <advance width="653"/>
  <unicode hex="0034"/>
  <outline>
    <contour>
      <point x="426" y="424"/>
      <point x="389" y="413"/>
      <point x="360" y="398" type="curve"/>
      <point x="343" y="323"/>
      <point x="330" y="162"/>
      <point x="330" y="50" type="curve" smooth="yes"/>
      <point x="330" y="17"/>
      <point x="330" y="-15"/>
      <point x="333" y="-41" type="curve"/>
      <point x="350" y="-46"/>
      <point x="365" y="-48"/>
      <point x="393" y="-48" type="curve" smooth="yes"/>
      <point x="441" y="-48"/>
      <point x="476" y="-40"/>
      <point x="500" y="-29" type="curve"/>
      <point x="516" y="166"/>
      <point x="554" y="346"/>
      <point x="579" y="412" type="curve"/>
      <point x="550" y="419"/>
      <point x="516" y="424"/>
      <point x="489" y="424" type="curve" smooth="yes"/>
    </contour>
    <contour>
      <point x="600" y="96" type="curve"/>
      <point x="622" y="131"/>
      <point x="635" y="193"/>
      <point x="635" y="239" type="curve"/>
      <point x="523" y="249"/>
      <point x="368" y="265"/>
      <point x="237" y="290" type="curve"/>
      <point x="317" y="426"/>
      <point x="377" y="562"/>
      <point x="434" y="718" type="curve"/>
      <point x="393" y="733"/>
      <point x="320" y="761"/>
      <point x="242" y="761" type="curve"/>
      <point x="175" y="541"/>
      <point x="115" y="413"/>
      <point x="3" y="234" type="curve"/>
      <point x="10" y="200"/>
      <point x="14" y="173"/>
      <point x="24" y="148" type="curve"/>
      <point x="133" y="136"/>
      <point x="499" y="100"/>
    </contour>
  </outline>
</glyph>
<glyph name="nine" format="1">
  <advance width="618"/>
  <unicode hex="0039"/>
  <outline>
    <contour>
      <point x="245" y="118" type="curve" smooth="yes"/>
      <point x="331" y="118"/>
      <point x="385" y="208"/>
      <point x="385" y="403" type="curve" smooth="yes"/>
      <point x="385" y="547"/>
      <point x="352" y="581"/>
      <point x="314" y="581" type="curve" smooth="yes"/>
      <point x="265" y="581"/>
      <point x="241" y="531"/>
      <point x="241" y="475" type="curve" smooth="yes"/>
      <point x="241" y="410"/>
      <point x="274" y="371"/>
      <point x="320" y="371" type="curve" smooth="yes"/>
      <point x="352" y="371"/>
      <point x="377" y="389"/>
      <point x="390" y="460" type="curve"/>
      <point x="427" y="339" type="line"/>
      <point x="379" y="261"/>
      <point x="323" y="241"/>
      <point x="258" y="241" type="curve" smooth="yes"/>
      <point x="121" y="241"/>
      <point x="32" y="323"/>
      <point x="32" y="451" type="curve" smooth="yes"/>
      <point x="32" y="578"/>
      <point x="125" y="711"/>
      <point x="316" y="711" type="curve" smooth="yes"/>
      <point x="496" y="711"/>
      <point x="590" y="577"/>
      <point x="590" y="411" type="curve" smooth="yes"/>
      <point x="590" y="150"/>
      <point x="439" y="-30"/>
      <point x="224" y="-30" type="curve" smooth="yes"/>
      <point x="130" y="-30"/>
      <point x="68" y="-1"/>
      <point x="27" y="33" type="curve"/>
      <point x="52" y="88"/>
      <point x="82" y="134"/>
      <point x="127" y="171" type="curve"/>
      <point x="146" y="142"/>
      <point x="197" y="118"/>
    </contour>
  </outline>
</glyph>
<glyph name="v" format="1">
  <advance width="528"/>
  <unicode hex="0076"/>
  <outline>
    <contour>
      <point x="329" y="24" type="curve"/>
      <point x="418" y="173"/>
      <point x="494" y="360"/>
      <point x="537" y="525" type="curve"/>
      <point x="482" y="547"/>
      <point x="417" y="560"/>
      <point x="356" y="564" type="curve"/>
      <point x="340" y="441"/>
      <point x="309" y="299"/>
      <point x="273" y="195" type="curve"/>
      <point x="259" y="316"/>
      <point x="231" y="475"/>
      <point x="190" y="591" type="curve"/>
      <point x="110" y="590"/>
      <point x="33" y="575"/>
      <point x="-27" y="548" type="curve"/>
      <point x="58" y="366"/>
      <point x="115" y="184"/>
      <point x="149" y="2" type="curve"/>
      <point x="216" y="2"/>
      <point x="287" y="7"/>
    </contour>
  </outline>
</glyph>
<glyph name="w" format="1">
  <advance width="831"/>
  <unicode hex="0077"/>
  <outline>
    <contour>
      <point x="544" y="-34"/>
      <point x="610" y="-21"/>
      <point x="644" y="-7" type="curve"/>
      <point x="730" y="130"/>
      <point x="792" y="319"/>
      <point x="836" y="478" type="curve"/>
      <point x="788" y="506"/>
      <point x="744" y="517"/>
      <point x="671" y="522" type="curve"/>
      <point x="660" y="411"/>
      <point x="645" y="297"/>
      <point x="615" y="189" type="curve"/>
      <point x="621" y="189" type="line"/>
      <point x="603" y="305"/>
      <point x="581" y="417"/>
      <point x="548" y="527" type="curve"/>
      <point x="489" y="529"/>
      <point x="408" y="517"/>
      <point x="346" y="503" type="curve"/>
      <point x="322" y="391"/>
      <point x="291" y="281"/>
      <point x="254" y="170" type="curve"/>
      <point x="262" y="170" type="line"/>
      <point x="236" y="294"/>
      <point x="228" y="419"/>
      <point x="222" y="550" type="curve"/>
      <point x="144" y="547"/>
      <point x="70" y="535"/>
      <point x="-2" y="513" type="curve"/>
      <point x="30" y="329"/>
      <point x="73" y="162"/>
      <point x="134" y="-3" type="curve"/>
      <point x="185" y="-2"/>
      <point x="260" y="8"/>
      <point x="303" y="21" type="curve"/>
      <point x="352" y="122"/>
      <point x="392" y="232"/>
      <point x="429" y="331" type="curve"/>
      <point x="421" y="332" type="line"/>
      <point x="448" y="213"/>
      <point x="472" y="85"/>
      <point x="491" y="-37" type="curve"/>
    </contour>
  </outline>
</glyph>
<glyph name="z" format="1">
  <advance width="551"/>
  <unicode hex="007A"/>
  <outline>
    <contour>
      <point x="488" y="120" type="curve"/>
      <point x="386" y="95"/>
      <point x="312" y="92"/>
      <point x="210" y="89" type="curve"/>
      <point x="284" y="188"/>
      <point x="427" y="315"/>
      <point x="503" y="380" type="curve"/>
      <point x="520" y="416"/>
      <point x="530" y="464"/>
      <point x="535" y="504" type="curve"/>
      <point x="399" y="555"/>
      <point x="239" y="573"/>
      <point x="88" y="577" type="curve"/>
      <point x="59" y="523"/>
      <point x="50" y="475"/>
      <point x="50" y="413" type="curve"/>
      <point x="137" y="422"/>
      <point x="253" y="426"/>
      <point x="325" y="426" type="curve"/>
      <point x="230" y="356"/>
      <point x="119" y="255"/>
      <point x="19" y="134" type="curve"/>
      <point x="9" y="104"/>
      <point x="3" y="59"/>
      <point x="3" y="25" type="curve"/>
      <point x="114" y="-23"/>
      <point x="314" y="-46"/>
      <point x="459" y="-47" type="curve"/>
      <point x="478" y="-1"/>
      <point x="488" y="58"/>
    </contour>
  </outline>
</glyph>
<glyph name="bn_anusvar" format="1">
  <advance width="438"/>
  <unicode hex="0982"/>
  <outline>
    <contour>
      <point x="403" y="-39"/>
      <point x="414" y="-32"/>
      <point x="422" y="-21" type="curve"/>
      <point x="334" y="140"/>
      <point x="183" y="257"/>
      <point x="50" y="310" type="curve"/>
      <point x="38" y="293"/>
      <point x="33" y="278"/>
      <point x="30" y="259" type="curve"/>
      <point x="154" y="221"/>
      <point x="290" y="110"/>
      <point x="387" y="-45" type="curve"/>
    </contour>
    <contour>
      <point x="297" y="330"/>
      <point x="363" y="395"/>
      <point x="363" y="474" type="curve" smooth="yes"/>
      <point x="363" y="547"/>
      <point x="307" y="599"/>
      <point x="230" y="599" type="curve" smooth="yes"/>
      <point x="148" y="599"/>
      <point x="85" y="535"/>
      <point x="85" y="456" type="curve" smooth="yes"/>
      <point x="85" y="382"/>
      <point x="141" y="330"/>
      <point x="215" y="330" type="curve" smooth="yes"/>
    </contour>
    <contour>
      <point x="172" y="373"/>
      <point x="131" y="411"/>
      <point x="131" y="472" type="curve" smooth="yes"/>
      <point x="131" y="523"/>
      <point x="162" y="556"/>
      <point x="215" y="556" type="curve" smooth="yes"/>
      <point x="275" y="556"/>
      <point x="317" y="520"/>
      <point x="317" y="461" type="curve" smooth="yes"/>
      <point x="317" y="408"/>
      <point x="283" y="373"/>
      <point x="229" y="373" type="curve" smooth="yes"/>
    </contour>
  </outline>
</glyph>
<glyph name="bn_e" format="1">
  <advance width="568"/>
  <unicode hex="098F"/>
  <note>
	uni098F
  </note>
  <outline>
    <contour>
      <point x="444" y="-17"/>
      <point x="461" y="-15"/>
      <point x="476" y="-9" type="curve"/>
      <point x="493" y="125"/>
      <point x="503" y="281"/>
      <point x="503" y="484" type="curve" smooth="yes"/>
      <point x="503" y="570"/>
      <point x="447" y="627"/>
      <point x="383" y="627" type="curve" smooth="yes"/>
      <point x="288" y="627"/>
      <point x="156" y="501"/>
      <point x="156" y="387" type="curve" smooth="yes"/>
      <point x="156" y="320"/>
      <point x="201" y="281"/>
      <point x="263" y="281" type="curve" smooth="yes"/>
      <point x="296" y="281"/>
      <point x="329" y="292"/>
      <point x="354" y="315" type="curve"/>
      <point x="359" y="326"/>
      <point x="360" y="338"/>
      <point x="360" y="349" type="curve" smooth="yes"/>
      <point x="360" y="360"/>
      <point x="359" y="370"/>
      <point x="354" y="377" type="curve"/>
      <point x="338" y="358"/>
      <point x="310" y="331"/>
      <point x="270" y="331" type="curve" smooth="yes"/>
      <point x="237" y="331"/>
      <point x="212" y="349"/>
      <point x="212" y="391" type="curve" smooth="yes"/>
      <point x="212" y="480"/>
      <point x="321" y="585"/>
      <point x="392" y="585" type="curve" smooth="yes"/>
      <point x="429" y="585"/>
      <point x="456" y="555"/>
      <point x="456" y="501" type="curve" smooth="yes"/>
      <point x="456" y="331"/>
      <point x="446" y="137"/>
      <point x="426" y="8" type="curve"/>
      <point x="443" y="13" type="line"/>
      <point x="418" y="88"/>
      <point x="389" y="128"/>
      <point x="330" y="128" type="curve" smooth="yes"/>
      <point x="271" y="128"/>
      <point x="200" y="87"/>
      <point x="146" y="87" type="curve" smooth="yes"/>
      <point x="107" y="87"/>
      <point x="74" y="108"/>
      <point x="74" y="163" type="curve" smooth="yes"/>
      <point x="74" y="196"/>
      <point x="86" y="245"/>
      <point x="105" y="275" type="curve"/>
      <point x="95" y="284"/>
      <point x="83" y="290"/>
      <point x="65" y="291" type="curve"/>
      <point x="44" y="253"/>
      <point x="25" y="201"/>
      <point x="25" y="155" type="curve" smooth="yes"/>
      <point x="25" y="86"/>
      <point x="67" y="34"/>
      <point x="139" y="34" type="curve" smooth="yes"/>
      <point x="202" y="34"/>
      <point x="280" y="75"/>
      <point x="334" y="75" type="curve" smooth="yes"/>
      <point x="391" y="75"/>
      <point x="406" y="29"/>
      <point x="429" y="-17" type="curve"/>
    </contour>
  </outline>
</glyph>
<glyph name="bn_kha" format="1">
  <advance width="666"/>
  <unicode hex="0996"/>
  <outline>
    <contour>
      <point x="471" y="-46" type="line"/>
      <point x="414" y="101"/>
      <point x="320" y="231"/>
      <point x="167" y="262" type="curve"/>
      <point x="167" y="221" type="line"/>
      <point x="251" y="253" type="line" smooth="yes"/>
      <point x="368" y="298"/>
      <point x="439" y="363"/>
      <point x="439" y="436" type="curve" smooth="yes"/>
      <point x="439" y="477"/>
      <point x="426" y="507"/>
      <point x="408" y="530" type="curve"/>
      <point x="364" y="547" type="line"/>
      <point x="315" y="485"/>
      <point x="244" y="454"/>
      <point x="193" y="454" type="curve" smooth="yes"/>
      <point x="143" y="454"/>
      <point x="120" y="471"/>
      <point x="120" y="518" type="curve" smooth="yes"/>
      <point x="120" y="541"/>
      <point x="128" y="564"/>
      <point x="143" y="582" type="curve"/>
      <point x="121" y="582"/>
      <point x="96" y="578"/>
      <point x="79" y="572" type="curve"/>
      <point x="68" y="555"/>
      <point x="63" y="534"/>
      <point x="63" y="509" type="curve" smooth="yes"/>
      <point x="63" y="438"/>
      <point x="120" y="400"/>
      <point x="198" y="400" type="curve" smooth="yes"/>
      <point x="259" y="400"/>
      <point x="343" y="439"/>
      <point x="395" y="509" type="curve"/>
      <point x="370" y="522" type="line"/>
      <point x="386" y="502"/>
      <point x="393" y="483"/>
      <point x="393" y="458" type="curve" smooth="yes"/>
      <point x="393" y="395"/>
      <point x="344" y="352"/>
      <point x="235" y="305" type="curve" smooth="yes"/>
      <point x="135" y="262" type="line"/>
      <point x="135" y="242"/>
      <point x="151" y="220"/>
      <point x="172" y="208" type="curve"/>
      <point x="296" y="181"/>
      <point x="367" y="93"/>
      <point x="434" y="-59" type="curve"/>
    </contour>
    <contour>
      <point x="552" y="50"/>
      <point x="588" y="203"/>
      <point x="588" y="470" type="curve" smooth="yes"/>
      <point x="588" y="495"/>
      <point x="590" y="510"/>
      <point x="603" y="516" type="curve" smooth="yes"/>
      <point x="614" y="521"/>
      <point x="632" y="528"/>
      <point x="666" y="535" type="curve"/>
      <point x="669" y="539"/>
      <point x="671" y="549"/>
      <point x="671" y="559" type="curve" smooth="yes"/>
      <point x="671" y="568"/>
      <point x="669" y="577"/>
      <point x="666" y="581" type="curve"/>
      <point x="620" y="571"/>
      <point x="589" y="562"/>
      <point x="568" y="549" type="curve" smooth="yes"/>
      <point x="546" y="536"/>
      <point x="541" y="511"/>
      <point x="541" y="483" type="curve" smooth="yes"/>
      <point x="541" y="472"/>
      <point x="544" y="441"/>
      <point x="544" y="414" type="curve" smooth="yes"/>
      <point x="544" y="239"/>
      <point x="519" y="80"/>
      <point x="454" y="-30" type="curve"/>
      <point x="434" y="-59" type="line"/>
      <point x="447" y="-67"/>
      <point x="464" y="-74"/>
      <point x="486" y="-74" type="curve"/>
    </contour>
  </outline>
</glyph>
<glyph name="bn_nga" format="1">
  <advance width="576"/>
  <unicode hex="0999"/>
  <outline>
    <contour>
      <point x="490" y="-12"/>
      <point x="567" y="59"/>
      <point x="567" y="181" type="curve" smooth="yes"/>
      <point x="567" y="259"/>
      <point x="533" y="353"/>
      <point x="485" y="415" type="curve"/>
      <point x="474" y="421"/>
      <point x="460" y="424"/>
      <point x="450" y="424" type="curve"/>
      <point x="415" y="367"/>
      <point x="369" y="297"/>
      <point x="321" y="297" type="curve" smooth="yes"/>
      <point x="273" y="297"/>
      <point x="261" y="374"/>
      <point x="261" y="441" type="curve" smooth="yes"/>
      <point x="261" y="524"/>
      <point x="288" y="603"/>
      <point x="360" y="603" type="curve" smooth="yes"/>
      <point x="392" y="603"/>
      <point x="412" y="583"/>
      <point x="412" y="553" type="curve" smooth="yes"/>
      <point x="412" y="510"/>
      <point x="366" y="493"/>
      <point x="316" y="493" type="curve" smooth="yes"/>
      <point x="247" y="493"/>
      <point x="155" y="520"/>
      <point x="96" y="551" type="curve"/>
      <point x="89" y="534"/>
      <point x="86" y="517"/>
      <point x="84" y="496" type="curve"/>
      <point x="144" y="469"/>
      <point x="236" y="447"/>
      <point x="307" y="447" type="curve" smooth="yes"/>
      <point x="387" y="447"/>
      <point x="456" y="481"/>
      <point x="456" y="549" type="curve" smooth="yes"/>
      <point x="456" y="608"/>
      <point x="412" y="640"/>
      <point x="361" y="640" type="curve" smooth="yes"/>
      <point x="264" y="640"/>
      <point x="214" y="555"/>
      <point x="214" y="445" type="curve" smooth="yes"/>
      <point x="214" y="343"/>
      <point x="248" y="252"/>
      <point x="333" y="252" type="curve" smooth="yes"/>
      <point x="407" y="252"/>
      <point x="452" y="330"/>
      <point x="493" y="399" type="curve"/>
      <point x="458" y="393" type="line"/>
      <point x="492" y="344"/>
      <point x="519" y="256"/>
      <point x="519" y="189" type="curve" smooth="yes"/>
      <point x="519" y="97"/>
      <point x="467" y="43"/>
      <point x="376" y="43" type="curve" smooth="yes"/>
      <point x="267" y="43"/>
      <point x="167" y="142"/>
      <point x="46" y="407" type="curve"/>
      <point x="32" y="399"/>
      <point x="18" y="392"/>
      <point x="5" y="382" type="curve"/>
      <point x="96" y="183"/>
      <point x="208" y="-12"/>
      <point x="378" y="-12" type="curve" smooth="yes"/>
    </contour>
  </outline>
</glyph>
<glyph name="bn_ca" format="1">
  <advance width="584"/>
  <unicode hex="099A"/>
  <outline>
    <contour>
      <point x="401" y="-44"/>
      <point x="533" y="112"/>
      <point x="533" y="274" type="curve" smooth="yes"/>
      <point x="533" y="335"/>
      <point x="499" y="366"/>
      <point x="435" y="388" type="curve" smooth="yes"/>
      <point x="339" y="421"/>
      <point x="236" y="474"/>
      <point x="195" y="586" type="curve"/>
      <point x="173" y="540" type="line"/>
      <point x="202" y="452"/>
      <point x="298" y="388"/>
      <point x="389" y="356" type="curve" smooth="yes"/>
      <point x="456" y="333"/>
      <point x="482" y="318"/>
      <point x="482" y="273" type="curve" smooth="yes"/>
      <point x="482" y="133"/>
      <point x="360" y="-2"/>
      <point x="241" y="-2" type="curve" smooth="yes"/>
      <point x="180" y="-2"/>
      <point x="148" y="26"/>
      <point x="148" y="110" type="curve" smooth="yes"/>
      <point x="148" y="220"/>
      <point x="180" y="468"/>
      <point x="211" y="606" type="curve"/>
      <point x="159" y="590" type="line"/>
      <point x="151" y="530"/>
      <point x="98" y="271"/>
      <point x="98" y="136" type="curve" smooth="yes"/>
      <point x="98" y="-15"/>
      <point x="186" y="-44"/>
      <point x="250" y="-44" type="curve" smooth="yes"/>
    </contour>
    <contour>
      <point x="78" y="549"/>
      <point x="206" y="561"/>
      <point x="302" y="561" type="curve" smooth="yes"/>
      <point x="397" y="561"/>
      <point x="524" y="548"/>
      <point x="584" y="535" type="curve"/>
      <point x="587" y="541"/>
      <point x="589" y="552"/>
      <point x="589" y="562" type="curve" smooth="yes"/>
      <point x="589" y="568"/>
      <point x="588" y="576"/>
      <point x="584" y="581" type="curve"/>
      <point x="527" y="596"/>
      <point x="383" y="610"/>
      <point x="289" y="610" type="curve" smooth="yes"/>
      <point x="195" y="610"/>
      <point x="78" y="598"/>
      <point x="0" y="581" type="curve"/>
      <point x="-3" y="576"/>
      <point x="-6" y="569"/>
      <point x="-6" y="561" type="curve" smooth="yes"/>
      <point x="-6" y="552"/>
      <point x="-4" y="544"/>
      <point x="0" y="535" type="curve"/>
    </contour>
  </outline>
</glyph>
<glyph name="bn_pa" format="1">
  <advance width="530"/>
  <unicode hex="09AA"/>
  <outline>
    <contour>
      <point x="439" y="461"/>
      <point x="390" y="613"/>
      <point x="247" y="613" type="curve" smooth="yes"/>
      <point x="152" y="613"/>
      <point x="66" y="546"/>
      <point x="11" y="475" type="curve"/>
      <point x="12" y="453"/>
      <point x="16" y="433"/>
      <point x="23" y="413" type="curve"/>
      <point x="73" y="398"/>
      <point x="146" y="369"/>
      <point x="139" y="322" type="curve" smooth="yes"/>
      <point x="137" y="304"/>
      <point x="125" y="289"/>
      <point x="109" y="280" type="curve"/>
      <point x="144" y="295" type="line"/>
      <point x="159" y="304"/>
      <point x="172" y="325"/>
      <point x="174" y="344" type="curve" smooth="yes"/>
      <point x="182" y="398"/>
      <point x="106" y="441"/>
      <point x="46" y="465" type="curve"/>
      <point x="56" y="446" type="line"/>
      <point x="118" y="516"/>
      <point x="178" y="561"/>
      <point x="246" y="561" type="curve" smooth="yes"/>
      <point x="336" y="561"/>
      <point x="403" y="481"/>
      <point x="382" y="334" type="curve"/>
      <point x="405" y="268" type="line"/>
    </contour>
    <contour>
      <point x="361" y="-16"/>
      <point x="380" y="-14"/>
      <point x="394" y="-10" type="curve"/>
      <point x="394" y="-5"/>
      <point x="394" y="0"/>
      <point x="394" y="14" type="curve" smooth="yes"/>
      <point x="394" y="112"/>
      <point x="429" y="363"/>
      <point x="457" y="466" type="curve" smooth="yes"/>
      <point x="464" y="495"/>
      <point x="471" y="511"/>
      <point x="488" y="520" type="curve" smooth="yes"/>
      <point x="497" y="525"/>
      <point x="515" y="531"/>
      <point x="530" y="535" type="curve"/>
      <point x="533" y="539"/>
      <point x="535" y="549"/>
      <point x="535" y="559" type="curve" smooth="yes"/>
      <point x="535" y="568"/>
      <point x="533" y="577"/>
      <point x="530" y="581" type="curve"/>
      <point x="491" y="572"/>
      <point x="468" y="562"/>
      <point x="456" y="554" type="curve" smooth="yes"/>
      <point x="441" y="544"/>
      <point x="431" y="526"/>
      <point x="423" y="499" type="curve" smooth="yes"/>
      <point x="416" y="477"/>
      <point x="412" y="453"/>
      <point x="406" y="430" type="curve"/>
      <point x="397" y="407" type="line"/>
      <point x="373" y="303"/>
      <point x="342" y="89"/>
      <point x="335" y="-16" type="curve"/>
    </contour>
    <contour>
      <point x="222" y="293"/>
      <point x="331" y="389"/>
      <point x="393" y="458" type="curve"/>
      <point x="366" y="493" type="line"/>
      <point x="296" y="416"/>
      <point x="173" y="319"/>
      <point x="95" y="271" type="curve"/>
      <point x="103" y="254"/>
      <point x="115" y="240"/>
      <point x="129" y="229" type="curve"/>
    </contour>
  </outline>
</glyph>
<glyph name="bn_ssa" format="1">
  <advance width="663"/>
  <unicode hex="09B7"/>
  <outline>
    <contour>
      <point x="526" y="-149" type="line"/>
      <point x="434" y="43"/>
      <point x="288" y="139"/>
      <point x="138" y="181" type="curve"/>
      <point x="136" y="154" type="line"/>
      <point x="346" y="359" type="line"/>
      <point x="282" y="370" type="line"/>
      <point x="88" y="183" type="line"/>
      <point x="92" y="163"/>
      <point x="100" y="144"/>
      <point x="131" y="123" type="curve"/>
      <point x="283" y="91"/>
      <point x="408" y="-1"/>
      <point x="509" y="-182" type="curve"/>
    </contour>
    <contour>
      <point x="506" y="306" type="line"/>
      <point x="370" y="367" type="line" smooth="yes"/>
      <point x="213" y="438"/>
      <point x="112" y="505"/>
      <point x="108" y="564" type="curve"/>
      <point x="35" y="574" type="line"/>
      <point x="35" y="500"/>
      <point x="143" y="424"/>
      <point x="261" y="369" type="curve" smooth="yes"/>
      <point x="497" y="260" type="line"/>
    </contour>
    <contour>
      <point x="531" y="-182"/>
      <point x="548" y="-180"/>
      <point x="563" y="-171" type="curve"/>
      <point x="531" y="-64"/>
      <point x="529" y="111"/>
      <point x="529" y="213" type="curve" smooth="yes"/>
      <point x="529" y="360"/>
      <point x="538" y="446"/>
      <point x="562" y="571" type="curve"/>
      <point x="505" y="581" type="line"/>
      <point x="486" y="432"/>
      <point x="476" y="295"/>
      <point x="476" y="115" type="curve" smooth="yes"/>
      <point x="476" y="-60"/>
      <point x="494" y="-133"/>
      <point x="509" y="-182" type="curve"/>
    </contour>
    <contour>
      <point x="87" y="554"/>
      <point x="206" y="570"/>
      <point x="343" y="570" type="curve" smooth="yes"/>
      <point x="473" y="570"/>
      <point x="591" y="554"/>
      <point x="663" y="535" type="curve"/>
      <point x="665" y="542"/>
      <point x="667" y="550"/>
      <point x="667" y="561" type="curve" smooth="yes"/>
      <point x="667" y="568"/>
      <point x="666" y="576"/>
      <point x="663" y="581" type="curve"/>
      <point x="595" y="603"/>
      <point x="472" y="621"/>
      <point x="347" y="621" type="curve" smooth="yes"/>
      <point x="209" y="621"/>
      <point x="86" y="603"/>
      <point x="0" y="581" type="curve"/>
      <point x="-4" y="575"/>
      <point x="-5" y="568"/>
      <point x="-5" y="560" type="curve" smooth="yes"/>
      <point x="-5" y="551"/>
      <point x="-3" y="544"/>
      <point x="0" y="535" type="curve"/>
    </contour>
  </outline>
</glyph>
<glyph name="bn_rrikaar" format="1">
  <advance width="300"/>
  <unicode hex="09C4"/>
  <outline>
    <contour>
      <point x="231" y="-271"/>
      <point x="240" y="-257"/>
      <point x="246" y="-243" type="curve"/>
      <point x="99" y="-140" type="line"/>
      <point x="88" y="-157" type="line"/>
      <point x="225" y="-24" type="line"/>
      <point x="206" y="0" type="line"/>
      <point x="171" y="8" type="line"/>
      <point x="171" y="-9" type="line"/>
      <point x="44" y="-133" type="line"/>
      <point x="44" y="-148" type="line"/>
      <point x="218" y="-282" type="line"/>
    </contour>
    <contour>
      <point x="171" y="-349"/>
      <point x="179" y="-335"/>
      <point x="184" y="-322" type="curve"/>
      <point x="62" y="-236" type="line"/>
      <point x="57" y="-253" type="line"/>
      <point x="123" y="-189" type="line"/>
      <point x="77" y="-169" type="line"/>
      <point x="13" y="-232" type="line"/>
      <point x="13" y="-247" type="line"/>
      <point x="158" y="-359" type="line"/>
    </contour>
  </outline>
</glyph>
<glyph name="bn_two" format="1">
  <advance width="550"/>
  <unicode hex="09E8"/>
  <outline>
    <contour>
      <point x="364" y="253"/>
      <point x="319" y="221"/>
      <point x="235" y="221" type="curve" smooth="yes"/>
      <point x="187" y="221"/>
      <point x="131" y="234"/>
      <point x="70" y="257" type="curve"/>
      <point x="90" y="186" type="line"/>
      <point x="233" y="155"/>
      <point x="359" y="87"/>
      <point x="489" y="-34" type="curve"/>
      <point x="500" y="-20"/>
      <point x="510" y="-7"/>
      <point x="517" y="9" type="curve"/>
      <point x="406" y="105"/>
      <point x="289" y="170"/>
      <point x="178" y="208" type="curve"/>
      <point x="165" y="180" type="line"/>
      <point x="191" y="175"/>
      <point x="217" y="173"/>
      <point x="238" y="173" type="curve" smooth="yes"/>
      <point x="339" y="173"/>
      <point x="412" y="218"/>
      <point x="412" y="314" type="curve" smooth="yes"/>
      <point x="412" y="479"/>
      <point x="184" y="463"/>
      <point x="163" y="583" type="curve"/>
      <point x="145" y="575"/>
      <point x="130" y="562"/>
      <point x="116" y="546" type="curve"/>
      <point x="136" y="442"/>
      <point x="364" y="441"/>
      <point x="364" y="317" type="curve" smooth="yes"/>
    </contour>
  </outline>
</glyph>
<glyph name="bn_eight" format="1">
  <advance width="550"/>
  <unicode hex="09EE"/>
  <outline>
    <contour>
      <point x="324" y="-17"/>
      <point x="432" y="130"/>
      <point x="432" y="237" type="curve" smooth="yes"/>
      <point x="432" y="272"/>
      <point x="418" y="301"/>
      <point x="394" y="320" type="curve"/>
      <point x="396" y="310" type="line"/>
      <point x="414" y="301"/>
      <point x="434" y="297"/>
      <point x="450" y="297" type="curve" smooth="yes"/>
      <point x="493" y="297"/>
      <point x="529" y="324"/>
      <point x="546" y="344" type="curve"/>
      <point x="542" y="363"/>
      <point x="535" y="381"/>
      <point x="525" y="398" type="curve"/>
      <point x="505" y="375"/>
      <point x="465" y="341"/>
      <point x="419" y="341" type="curve" smooth="yes"/>
      <point x="374" y="341"/>
      <point x="342" y="374"/>
      <point x="287" y="374" type="curve"/>
      <point x="240" y="374"/>
      <point x="198" y="353"/>
      <point x="179" y="346" type="curve"/>
      <point x="179" y="327"/>
      <point x="183" y="309"/>
      <point x="191" y="290" type="curve"/>
      <point x="220" y="305"/>
      <point x="267" y="325"/>
      <point x="307" y="325" type="curve" smooth="yes"/>
      <point x="335" y="325"/>
      <point x="376" y="315"/>
      <point x="376" y="249" type="curve" smooth="yes"/>
      <point x="376" y="143"/>
      <point x="287" y="35"/>
      <point x="197" y="35" type="curve" smooth="yes"/>
      <point x="147" y="35"/>
      <point x="122" y="71"/>
      <point x="122" y="135" type="curve" smooth="yes"/>
      <point x="122" y="200"/>
      <point x="146" y="343"/>
      <point x="146" y="459" type="curve" smooth="yes"/>
      <point x="146" y="527"/>
      <point x="133" y="559"/>
      <point x="61" y="586" type="curve"/>
      <point x="45" y="577"/>
      <point x="32" y="561"/>
      <point x="20" y="542" type="curve"/>
      <point x="92" y="530"/>
      <point x="96" y="496"/>
      <point x="96" y="451" type="curve" smooth="yes"/>
      <point x="96" y="334"/>
      <point x="76" y="197"/>
      <point x="76" y="139" type="curve" smooth="yes"/>
      <point x="76" y="33"/>
      <point x="146" y="-17"/>
      <point x="213" y="-17" type="curve" smooth="yes"/>
    </contour>
  </outline>
</glyph>
<glyph name="bn_bh_ra" format="1">
  <advance width="508"/>
  <outline>
    <contour>
      <point x="403" y="-82"/>
      <point x="419" y="-80"/>
      <point x="434" y="-74" type="curve"/>
      <point x="448" y="44"/>
      <point x="458" y="186"/>
      <point x="458" y="355" type="curve" smooth="yes"/>
      <point x="458" y="399"/>
      <point x="438" y="432"/>
      <point x="417" y="456" type="curve"/>
      <point x="407" y="464"/>
      <point x="389" y="474"/>
      <point x="378" y="479" type="curve"/>
      <point x="308" y="376"/>
      <point x="265" y="325"/>
      <point x="212" y="325" type="curve" smooth="yes"/>
      <point x="172" y="325"/>
      <point x="144" y="345"/>
      <point x="144" y="381" type="curve" smooth="yes"/>
      <point x="144" y="419"/>
      <point x="174" y="449"/>
      <point x="236" y="465" type="curve"/>
      <point x="230" y="486"/>
      <point x="216" y="503"/>
      <point x="201" y="511" type="curve"/>
      <point x="152" y="494"/>
      <point x="99" y="452"/>
      <point x="99" y="389" type="curve" smooth="yes"/>
      <point x="99" y="323"/>
      <point x="155" y="277"/>
      <point x="224" y="277" type="curve" smooth="yes"/>
      <point x="293" y="277"/>
      <point x="348" y="348"/>
      <point x="409" y="441" type="curve"/>
      <point x="370" y="453" type="line"/>
      <point x="408" y="414"/>
      <point x="413" y="390"/>
      <point x="413" y="328" type="curve" smooth="yes"/>
      <point x="413" y="249"/>
      <point x="404" y="58"/>
      <point x="386" y="-57" type="curve"/>
      <point x="401" y="-55" type="line"/>
      <point x="378" y="14"/>
      <point x="352" y="50"/>
      <point x="299" y="50" type="curve" smooth="yes"/>
      <point x="250" y="50"/>
      <point x="183" y="19"/>
      <point x="139" y="19" type="curve" smooth="yes"/>
      <point x="103" y="19"/>
      <point x="74" y="40"/>
      <point x="74" y="87" type="curve" smooth="yes"/>
      <point x="74" y="123"/>
      <point x="91" y="168"/>
      <point x="113" y="197" type="curve"/>
      <point x="102" y="205"/>
      <point x="89" y="210"/>
      <point x="71" y="211" type="curve"/>
      <point x="49" y="174"/>
      <point x="28" y="126"/>
      <point x="28" y="80" type="curve" smooth="yes"/>
      <point x="28" y="17"/>
      <point x="66" y="-33"/>
      <point x="132" y="-33" type="curve" smooth="yes"/>
      <point x="185" y="-33"/>
      <point x="257" y="-1"/>
      <point x="303" y="-1" type="curve" smooth="yes"/>
      <point x="355" y="-1"/>
      <point x="368" y="-42"/>
      <point x="388" y="-82" type="curve"/>
    </contour>
    <contour>
      <point x="56" y="550"/>
      <point x="164" y="563"/>
      <point x="258" y="563" type="curve" smooth="yes"/>
      <point x="352" y="563"/>
      <point x="463" y="550"/>
      <point x="508" y="535" type="curve"/>
      <point x="510" y="541"/>
      <point x="511" y="552"/>
      <point x="511" y="562" type="curve" smooth="yes"/>
      <point x="511" y="569"/>
      <point x="511" y="576"/>
      <point x="508" y="581" type="curve"/>
      <point x="466" y="599"/>
      <point x="351" y="613"/>
      <point x="258" y="613" type="curve" smooth="yes"/>
      <point x="165" y="613"/>
      <point x="55" y="599"/>
      <point x="0" y="581" type="curve"/>
      <point x="-3" y="576"/>
      <point x="-5" y="569"/>
      <point x="-5" y="561" type="curve" smooth="yes"/>
      <point x="-5" y="552"/>
      <point x="-3" y="543"/>
      <point x="0" y="535" type="curve"/>
    </contour>
  </outline>
</glyph>
<glyph name="bn_da.001" format="1">
  <advance width="469"/>
  <outline>
    <contour>
      <point x="374" y="-12"/>
      <point x="390" y="-6"/>
      <point x="406" y="2" type="curve"/>
      <point x="389" y="74"/>
      <point x="381" y="144"/>
      <point x="381" y="209" type="curve" smooth="yes"/>
      <point x="381" y="285"/>
      <point x="392" y="357"/>
      <point x="413" y="422" type="curve"/>
      <point x="402" y="441"/>
      <point x="389" y="455"/>
      <point x="369" y="465" type="curve"/>
      <point x="272" y="405"/>
      <point x="168" y="311"/>
      <point x="79" y="179" type="curve"/>
      <point x="104" y="184" type="line"/>
      <point x="136" y="282"/>
      <point x="151" y="422"/>
      <point x="151" y="532" type="curve" smooth="yes"/>
      <point x="151" y="550"/>
      <point x="151" y="568"/>
      <point x="150" y="584" type="curve"/>
      <point x="116" y="578" type="line"/>
      <point x="114" y="445"/>
      <point x="88" y="284"/>
      <point x="47" y="145" type="curve"/>
      <point x="58" y="133"/>
      <point x="81" y="123"/>
      <point x="98" y="120" type="curve"/>
      <point x="160" y="226"/>
      <point x="275" y="346"/>
      <point x="383" y="413" type="curve"/>
      <point x="366" y="424" type="line"/>
      <point x="346" y="360"/>
      <point x="333" y="274"/>
      <point x="333" y="183" type="curve" smooth="yes"/>
      <point x="333" y="117"/>
      <point x="340" y="48"/>
      <point x="356" y="-16" type="curve"/>
    </contour>
    <contour>
      <point x="58" y="549"/>
      <point x="152" y="562"/>
      <point x="240" y="562" type="curve" smooth="yes"/>
      <point x="330" y="562"/>
      <point x="422" y="549"/>
      <point x="469" y="535" type="curve"/>
      <point x="471" y="541"/>
      <point x="472" y="552"/>
      <point x="472" y="562" type="curve" smooth="yes"/>
      <point x="472" y="569"/>
      <point x="471" y="576"/>
      <point x="469" y="581" type="curve"/>
      <point x="425" y="598"/>
      <point x="331" y="612"/>
      <point x="245" y="612" type="curve" smooth="yes"/>
      <point x="155" y="612"/>
      <point x="57" y="598"/>
      <point x="0" y="581" type="curve"/>
      <point x="-3" y="576"/>
      <point x="-5" y="569"/>
      <point x="-5" y="561" type="curve" smooth="yes"/>
      <point x="-5" y="552"/>
      <point x="-3" y="541"/>
      <point x="0" y="535" type="curve"/>
    </contour>
  </outline>
</glyph>
<glyph name="bn_iikaar_wi1" format="1">
  <advance width="224"/>
  <outline>
    <contour>
      <point x="152" y="721"/>
      <point x="-1" y="867"/>
      <point x="-271" y="867" type="curve" smooth="yes"/>
      <point x="-430" y="867"/>
      <point x="-502" y="824"/>
      <point x="-502" y="755" type="curve" smooth="yes"/>
      <point x="-502" y="698"/>
      <point x="-453" y="659"/>
      <point x="-348" y="659" type="curve" smooth="yes"/>
      <point x="-257" y="659"/>
      <point x="-209" y="693"/>
      <point x="-158" y="693" type="curve" smooth="yes"/>
      <point x="-133" y="693"/>
      <point x="-112" y="681"/>
      <point x="-96" y="663" type="curve"/>
      <point x="-86" y="673"/>
      <point x="-79" y="689"/>
      <point x="-77" y="707" type="curve"/>
      <point x="-97" y="724"/>
      <point x="-124" y="736"/>
      <point x="-157" y="736" type="curve" smooth="yes"/>
      <point x="-216" y="736"/>
      <point x="-261" y="707"/>
      <point x="-346" y="707" type="curve" smooth="yes"/>
      <point x="-422" y="707"/>
      <point x="-457" y="722"/>
      <point x="-457" y="754" type="curve" smooth="yes"/>
      <point x="-457" y="789"/>
      <point x="-414" y="815"/>
      <point x="-269" y="815" type="curve" smooth="yes"/>
      <point x="3" y="815"/>
      <point x="94" y="703"/>
      <point x="94" y="537" type="curve"/>
      <point x="149" y="494" type="line"/>
    </contour>
    <contour>
      <point x="127" y="106"/>
      <point x="151" y="302"/>
      <point x="148" y="509" type="curve"/>
      <point x="129" y="498" type="line"/>
      <point x="100" y="494" type="line"/>
      <point x="103" y="263"/>
      <point x="79" y="102"/>
      <point x="49" y="-37" type="curve"/>
      <point x="62" y="-45"/>
      <point x="90" y="-51"/>
      <point x="112" y="-51" type="curve"/>
    </contour>
    <contour>
      <point x="144" y="497" type="line"/>
      <point x="119" y="541"/>
      <point x="57" y="567"/>
      <point x="0" y="581" type="curve"/>
      <point x="-4" y="571"/>
      <point x="-5" y="550"/>
      <point x="0" y="535" type="curve"/>
      <point x="61" y="520"/>
      <point x="100" y="496"/>
      <point x="100" y="455" type="curve"/>
    </contour>
    <contour>
      <point x="150" y="502"/>
      <point x="176" y="521"/>
      <point x="224" y="535" type="curve"/>
      <point x="228" y="548"/>
      <point x="229" y="571"/>
      <point x="224" y="581" type="curve"/>
      <point x="167" y="566"/>
      <point x="116" y="540"/>
      <point x="105" y="506" type="curve"/>
      <point x="141" y="481" type="line"/>
    </contour>
  </outline>
</glyph>
<glyph name="bn_iikaar_wi2" format="1">
  <advance width="224"/>
  <outline>
    <contour>
      <point x="152" y="728"/>
      <point x="-15" y="870"/>
      <point x="-317" y="870" type="curve" smooth="yes"/>
      <point x="-525" y="870"/>
      <point x="-602" y="826"/>
      <point x="-602" y="760" type="curve" smooth="yes"/>
      <point x="-602" y="703"/>
      <point x="-551" y="665"/>
      <point x="-417" y="665" type="curve" smooth="yes"/>
      <point x="-303" y="665"/>
      <point x="-244" y="699"/>
      <point x="-180" y="699" type="curve" smooth="yes"/>
      <point x="-154" y="699"/>
      <point x="-132" y="687"/>
      <point x="-116" y="669" type="curve"/>
      <point x="-106" y="679"/>
      <point x="-99" y="695"/>
      <point x="-97" y="713" type="curve"/>
      <point x="-117" y="730"/>
      <point x="-145" y="742"/>
      <point x="-179" y="742" type="curve" smooth="yes"/>
      <point x="-253" y="742"/>
      <point x="-308" y="713"/>
      <point x="-415" y="713" type="curve" smooth="yes"/>
      <point x="-520" y="713"/>
      <point x="-557" y="727"/>
      <point x="-557" y="759" type="curve" smooth="yes"/>
      <point x="-557" y="791"/>
      <point x="-510" y="818"/>
      <point x="-309" y="818" type="curve" smooth="yes"/>
      <point x="-7" y="818"/>
      <point x="94" y="703"/>
      <point x="94" y="537" type="curve"/>
      <point x="149" y="494" type="line"/>
    </contour>
    <contour>
      <point x="127" y="106"/>
      <point x="151" y="302"/>
      <point x="148" y="509" type="curve"/>
      <point x="129" y="498" type="line"/>
      <point x="100" y="494" type="line"/>
      <point x="103" y="263"/>
      <point x="79" y="102"/>
      <point x="49" y="-37" type="curve"/>
      <point x="62" y="-45"/>
      <point x="90" y="-51"/>
      <point x="112" y="-51" type="curve"/>
    </contour>
    <contour>
      <point x="144" y="497" type="line"/>
      <point x="119" y="541"/>
      <point x="57" y="567"/>
      <point x="0" y="581" type="curve"/>
      <point x="-4" y="571"/>
      <point x="-5" y="550"/>
      <point x="0" y="535" type="curve"/>
      <point x="61" y="520"/>
      <point x="100" y="496"/>
      <point x="100" y="455" type="curve"/>
    </contour>
    <contour>
      <point x="150" y="502"/>
      <point x="176" y="521"/>
      <point x="224" y="535" type="curve"/>
      <point x="228" y="548"/>
      <point x="229" y="571"/>
      <point x="224" y="581" type="curve"/>
      <point x="167" y="566"/>
      <point x="116" y="540"/>
      <point x="105" y="506" type="curve"/>
      <point x="141" y="481" type="line"/>
    </contour>
  </outline>
</glyph>
<glyph name="bn_k_tt_ra" format="1">
  <advance width="592"/>
  <outline>
    <contour>
      <point x="405" y="-79"/>
      <point x="560" y="22"/>
      <point x="560" y="113" type="curve" smooth="yes"/>
      <point x="560" y="162"/>
      <point x="518" y="194"/>
      <point x="458" y="194" type="curve" smooth="yes"/>
      <point x="420" y="194"/>
      <point x="386" y="179"/>
      <point x="364" y="156" type="curve"/>
      <point x="361" y="149"/>
      <point x="359" y="142"/>
      <point x="359" y="132" type="curve" smooth="yes"/>
      <point x="359" y="119"/>
      <point x="363" y="107"/>
      <point x="370" y="98" type="curve"/>
      <point x="383" y="118"/>
      <point x="414" y="147"/>
      <point x="458" y="147" type="curve" smooth="yes"/>
      <point x="488" y="147"/>
      <point x="508" y="134"/>
      <point x="508" y="109" type="curve" smooth="yes"/>
      <point x="508" y="41"/>
      <point x="364" y="-39"/>
      <point x="284" y="-39" type="curve" smooth="yes"/>
      <point x="246" y="-39"/>
      <point x="218" y="-21"/>
      <point x="218" y="14" type="curve" smooth="yes"/>
      <point x="218" y="64"/>
      <point x="277" y="121"/>
      <point x="313" y="211" type="curve" smooth="yes"/>
      <point x="346" y="293"/>
      <point x="364" y="399"/>
      <point x="364" y="514" type="curve" smooth="yes"/>
      <point x="364" y="537"/>
      <point x="363" y="557"/>
      <point x="364" y="579" type="curve"/>
      <point x="321" y="582" type="line"/>
      <point x="321" y="361"/>
      <point x="286" y="245"/>
      <point x="244" y="164" type="curve"/>
      <point x="235" y="147" type="line"/>
      <point x="197" y="106"/>
      <point x="169" y="59"/>
      <point x="169" y="21" type="curve" smooth="yes"/>
      <point x="169" y="-33"/>
      <point x="226" y="-79"/>
      <point x="299" y="-79" type="curve" smooth="yes"/>
    </contour>
    <contour>
      <point x="447" y="-254"/>
      <point x="461" y="-252"/>
      <point x="476" y="-245" type="curve"/>
      <point x="482" y="-165"/>
      <point x="486" y="-78"/>
      <point x="490" y="17" type="curve"/>
      <point x="442" y="-6" type="line"/>
      <point x="439" y="-88"/>
      <point x="435" y="-165"/>
      <point x="429" y="-229" type="curve"/>
      <point x="446" y="-225" type="line"/>
      <point x="419" y="-172"/>
      <point x="384" y="-146"/>
      <point x="327" y="-146" type="curve" smooth="yes"/>
      <point x="265" y="-146"/>
      <point x="206" y="-173"/>
      <point x="157" y="-173" type="curve" smooth="yes"/>
      <point x="117" y="-173"/>
      <point x="86" y="-153"/>
      <point x="86" y="-106" type="curve" smooth="yes"/>
      <point x="86" y="-77"/>
      <point x="97" y="-45"/>
      <point x="109" y="-23" type="curve"/>
      <point x="99" y="-14"/>
      <point x="87" y="-8"/>
      <point x="69" y="-7" type="curve"/>
      <point x="54" y="-38"/>
      <point x="39" y="-73"/>
      <point x="39" y="-110" type="curve" smooth="yes"/>
      <point x="39" y="-174"/>
      <point x="79" y="-222"/>
      <point x="151" y="-222" type="curve" smooth="yes"/>
      <point x="208" y="-222"/>
      <point x="275" y="-195"/>
      <point x="331" y="-195" type="curve" smooth="yes"/>
      <point x="391" y="-195"/>
      <point x="411" y="-230"/>
      <point x="432" y="-254" type="curve"/>
    </contour>
    <contour>
      <point x="256" y="150" type="line"/>
      <point x="221" y="235"/>
      <point x="158" y="312"/>
      <point x="52" y="342" type="curve"/>
      <point x="61" y="317" type="line"/>
      <point x="123" y="379"/>
      <point x="253" y="450"/>
      <point x="326" y="473" type="curve"/>
      <point x="327" y="529" type="line"/>
      <point x="207" y="485"/>
      <point x="73" y="408"/>
      <point x="13" y="349" type="curve"/>
      <point x="15" y="329"/>
      <point x="20" y="311"/>
      <point x="41" y="293" type="curve"/>
      <point x="131" y="281"/>
      <point x="197" y="205"/>
      <point x="238" y="119" type="curve"/>
    </contour>
    <contour>
      <point x="542" y="260"/>
      <point x="571" y="310"/>
      <point x="571" y="357" type="curve" smooth="yes"/>
      <point x="571" y="435"/>
      <point x="493" y="501"/>
      <point x="347" y="526" type="curve"/>
      <point x="343" y="472" type="line"/>
      <point x="448" y="458"/>
      <point x="536" y="421"/>
      <point x="536" y="362" type="curve" smooth="yes"/>
      <point x="536" y="326"/>
      <point x="504" y="295"/>
      <point x="449" y="268" type="curve"/>
      <point x="462" y="247"/>
      <point x="488" y="234"/>
      <point x="504" y="233" type="curve"/>
    </contour>
    <contour>
      <point x="79" y="551"/>
      <point x="179" y="566"/>
      <point x="290" y="566" type="curve" smooth="yes"/>
      <point x="401" y="566"/>
      <point x="514" y="551"/>
      <point x="592" y="535" type="curve"/>
      <point x="593" y="539"/>
      <point x="595" y="549"/>
      <point x="595" y="557" type="curve" smooth="yes"/>
      <point x="595" y="567"/>
      <point x="594" y="572"/>
      <point x="592" y="581" type="curve"/>
      <point x="523" y="600"/>
      <point x="407" y="616"/>
      <point x="294" y="616" type="curve" smooth="yes"/>
      <point x="182" y="616"/>
      <point x="77" y="600"/>
      <point x="0" y="581" type="curve"/>
      <point x="-3" y="576"/>
      <point x="-5" y="568"/>
      <point x="-5" y="560" type="curve" smooth="yes"/>
      <point x="-5" y="552"/>
      <point x="-3" y="541"/>
      <point x="0" y="535" type="curve"/>
    </contour>
    <contour>
      <point x="592" y="581" type="line"/>
      <point x="579" y="668"/>
      <point x="542" y="743"/>
      <point x="447" y="743" type="curve" smooth="yes"/>
      <point x="382" y="743"/>
      <point x="289" y="718"/>
      <point x="233" y="718" type="curve" smooth="yes"/>
      <point x="173" y="718"/>
      <point x="140" y="757"/>
      <point x="114" y="799" type="curve"/>
      <point x="103" y="794"/>
      <point x="87" y="783"/>
      <point x="77" y="770" type="curve"/>
      <point x="110" y="712"/>
      <point x="155" y="672"/>
      <point x="231" y="672" type="curve" smooth="yes"/>
      <point x="300" y="672"/>
      <point x="384" y="697"/>
      <point x="447" y="697" type="curve" smooth="yes"/>
      <point x="520" y="697"/>
      <point x="544" y="651"/>
      <point x="558" y="574" type="curve"/>
    </contour>
  </outline>
</glyph>
<glyph name="bn_kha.001" format="1">
  <advance width="526"/>
  <outline>
    <contour>
      <point x="368" y="10" type="line"/>
      <point x="326" y="142"/>
      <point x="256" y="257"/>
      <point x="140" y="286" type="curve"/>
      <point x="140" y="249" type="line"/>
      <point x="204" y="278" type="line" smooth="yes"/>
      <point x="294" y="319"/>
      <point x="346" y="379"/>
      <point x="346" y="446" type="curve" smooth="yes"/>
      <point x="346" y="484"/>
      <point x="336" y="512"/>
      <point x="321" y="533" type="curve"/>
      <point x="284" y="550" type="line"/>
      <point x="248" y="495"/>
      <point x="195" y="466"/>
      <point x="155" y="466" type="curve" smooth="yes"/>
      <point x="117" y="466"/>
      <point x="100" y="482"/>
      <point x="100" y="524" type="curve" smooth="yes"/>
      <point x="100" y="544"/>
      <point x="106" y="565"/>
      <point x="117" y="581" type="curve"/>
      <point x="97" y="581"/>
      <point x="75" y="577"/>
      <point x="60" y="571" type="curve"/>
      <point x="52" y="556"/>
      <point x="48" y="537"/>
      <point x="48" y="515" type="curve" smooth="yes"/>
      <point x="48" y="449"/>
      <point x="92" y="413"/>
      <point x="155" y="413" type="curve" smooth="yes"/>
      <point x="204" y="413"/>
      <point x="269" y="450"/>
      <point x="308" y="513" type="curve"/>
      <point x="286" y="525" type="line"/>
      <point x="298" y="507"/>
      <point x="304" y="490"/>
      <point x="304" y="467" type="curve" smooth="yes"/>
      <point x="304" y="411"/>
      <point x="268" y="372"/>
      <point x="184" y="329" type="curve" smooth="yes"/>
      <point x="106" y="289" type="line"/>
      <point x="107" y="270"/>
      <point x="120" y="249"/>
      <point x="137" y="236" type="curve"/>
      <point x="232" y="212"/>
      <point x="288" y="133"/>
      <point x="339" y="-4" type="curve"/>
    </contour>
    <contour>
      <point x="440" y="95"/>
      <point x="466" y="237"/>
      <point x="466" y="476" type="curve" smooth="yes"/>
      <point x="466" y="499"/>
      <point x="468" y="512"/>
      <point x="479" y="518" type="curve" smooth="yes"/>
      <point x="488" y="523"/>
      <point x="502" y="529"/>
      <point x="526" y="535" type="curve"/>
      <point x="529" y="539"/>
      <point x="531" y="549"/>
      <point x="531" y="559" type="curve" smooth="yes"/>
      <point x="531" y="568"/>
      <point x="529" y="577"/>
      <point x="526" y="581" type="curve"/>
      <point x="490" y="572"/>
      <point x="464" y="563"/>
      <point x="445" y="551" type="curve" smooth="yes"/>
      <point x="426" y="539"/>
      <point x="420" y="516"/>
      <point x="420" y="490" type="curve" smooth="yes"/>
      <point x="420" y="479"/>
      <point x="422" y="451"/>
      <point x="422" y="425" type="curve" smooth="yes"/>
      <point x="422" y="267"/>
      <point x="404" y="124"/>
      <point x="356" y="24" type="curve"/>
      <point x="339" y="-4" type="line"/>
      <point x="352" y="-12"/>
      <point x="370" y="-18"/>
      <point x="390" y="-18" type="curve"/>
    </contour>
  </outline>
</glyph>
<glyph name="bn_nn_dda" format="1">
  <advance width="668"/>
  <outline>
    <contour>
      <point x="557" y="-57"/>
      <point x="620" y="9"/>
      <point x="620" y="94" type="curve" smooth="yes"/>
      <point x="620" y="150"/>
      <point x="593" y="201"/>
      <point x="551" y="242" type="curve"/>
      <point x="518" y="216" type="line"/>
      <point x="554" y="184"/>
      <point x="574" y="145"/>
      <point x="574" y="102" type="curve" smooth="yes"/>
      <point x="574" y="44"/>
      <point x="537" y="-3"/>
      <point x="440" y="-3" type="curve" smooth="yes"/>
      <point x="268" y="-3"/>
      <point x="150" y="144"/>
      <point x="63" y="533" type="curve"/>
      <point x="47" y="528"/>
      <point x="33" y="523"/>
      <point x="19" y="515" type="curve"/>
      <point x="85" y="223"/>
      <point x="188" y="-57"/>
      <point x="436" y="-57" type="curve" smooth="yes"/>
    </contour>
    <contour>
      <point x="490" y="137"/>
      <point x="526" y="166"/>
      <point x="553" y="211" type="curve"/>
      <point x="516" y="246" type="line"/>
      <point x="492" y="205"/>
      <point x="470" y="184"/>
      <point x="441" y="184" type="curve" smooth="yes"/>
      <point x="415" y="184"/>
      <point x="400" y="200"/>
      <point x="400" y="223" type="curve" smooth="yes"/>
      <point x="400" y="247"/>
      <point x="417" y="268"/>
      <point x="446" y="268" type="curve" smooth="yes"/>
      <point x="480" y="268"/>
      <point x="512" y="240"/>
      <point x="527" y="201" type="curve"/>
      <point x="548" y="240" type="line"/>
      <point x="531" y="281"/>
      <point x="489" y="309"/>
      <point x="446" y="309" type="curve" smooth="yes"/>
      <point x="395" y="309"/>
      <point x="363" y="268"/>
      <point x="363" y="222" type="curve" smooth="yes"/>
      <point x="363" y="171"/>
      <point x="402" y="137"/>
      <point x="448" y="137" type="curve" smooth="yes"/>
    </contour>
    <contour>
      <point x="585" y="256"/>
      <point x="609" y="320"/>
      <point x="609" y="370" type="curve" smooth="yes"/>
      <point x="609" y="442"/>
      <point x="558" y="474"/>
      <point x="558" y="597" type="curve"/>
      <point x="537" y="614"/>
      <point x="518" y="617"/>
      <point x="498" y="616" type="curve"/>
      <point x="477" y="583"/>
      <point x="455" y="535"/>
      <point x="438" y="482" type="curve"/>
      <point x="454" y="458" type="line"/>
      <point x="432" y="554"/>
      <point x="383" y="619"/>
      <point x="303" y="619" type="curve" smooth="yes"/>
      <point x="221" y="619"/>
      <point x="162" y="551"/>
      <point x="162" y="462" type="curve" smooth="yes"/>
      <point x="162" y="377"/>
      <point x="217" y="322"/>
      <point x="281" y="322" type="curve" smooth="yes"/>
      <point x="334" y="322"/>
      <point x="375" y="361"/>
      <point x="375" y="416" type="curve" smooth="yes"/>
      <point x="375" y="434"/>
      <point x="371" y="453"/>
      <point x="363" y="468" type="curve"/>
      <point x="350" y="476"/>
      <point x="325" y="483"/>
      <point x="305" y="483" type="curve"/>
      <point x="317" y="466"/>
      <point x="328" y="441"/>
      <point x="328" y="419" type="curve" smooth="yes"/>
      <point x="328" y="392"/>
      <point x="311" y="370"/>
      <point x="281" y="370" type="curve" smooth="yes"/>
      <point x="245" y="370"/>
      <point x="213" y="401"/>
      <point x="213" y="458" type="curve" smooth="yes"/>
      <point x="213" y="523"/>
      <point x="255" y="567"/>
      <point x="308" y="567" type="curve" smooth="yes"/>
      <point x="370" y="567"/>
      <point x="422" y="508"/>
      <point x="436" y="421" type="curve"/>
      <point x="445" y="415"/>
      <point x="456" y="410"/>
      <point x="469" y="408" type="curve"/>
      <point x="487" y="471"/>
      <point x="514" y="538"/>
      <point x="543" y="583" type="curve"/>
      <point x="521" y="583" type="line"/>
      <point x="521" y="471"/>
      <point x="562" y="447"/>
      <point x="562" y="383" type="curve" smooth="yes"/>
      <point x="562" y="335"/>
      <point x="539" y="282"/>
      <point x="508" y="243" type="curve"/>
      <point x="529" y="219" type="line"/>
      <point x="555" y="216" type="line"/>
    </contour>
  </outline>
</glyph>
<glyph name="bn_p_ta" format="1">
  <advance width="618"/>
  <outline>
    <contour>
      <point x="538" y="-80"/>
      <point x="605" y="-9"/>
      <point x="605" y="96" type="curve" smooth="yes"/>
      <point x="605" y="209"/>
      <point x="537" y="296"/>
      <point x="454" y="296" type="curve" smooth="yes"/>
      <point x="391" y="296"/>
      <point x="353" y="254"/>
      <point x="353" y="200" type="curve" smooth="yes"/>
      <point x="353" y="166"/>
      <point x="367" y="130"/>
      <point x="390" y="107" type="curve"/>
      <point x="395" y="105"/>
      <point x="406" y="103"/>
      <point x="415" y="103" type="curve" smooth="yes"/>
      <point x="431" y="103"/>
      <point x="446" y="107"/>
      <point x="457" y="112" type="curve"/>
      <point x="425" y="134"/>
      <point x="407" y="167"/>
      <point x="407" y="198" type="curve" smooth="yes"/>
      <point x="407" y="231"/>
      <point x="423" y="255"/>
      <point x="461" y="255" type="curve" smooth="yes"/>
      <point x="516" y="255"/>
      <point x="559" y="201"/>
      <point x="559" y="110" type="curve" smooth="yes"/>
      <point x="559" y="23"/>
      <point x="509" y="-26"/>
      <point x="424" y="-26" type="curve" smooth="yes"/>
      <point x="275" y="-26"/>
      <point x="141" y="135"/>
      <point x="48" y="405" type="curve"/>
      <point x="33" y="401"/>
      <point x="17" y="395"/>
      <point x="4" y="387" type="curve"/>
      <point x="66" y="202"/>
      <point x="194" y="-80"/>
      <point x="425" y="-80" type="curve" smooth="yes"/>
    </contour>
    <contour>
      <point x="361" y="307"/>
      <point x="447" y="398"/>
      <point x="494" y="464" type="curve"/>
      <point x="464" y="499" type="line"/>
      <point x="409" y="424"/>
      <point x="311" y="333"/>
      <point x="246" y="287" type="curve"/>
      <point x="256" y="271"/>
      <point x="270" y="257"/>
      <point x="285" y="246" type="curve"/>
    </contour>
    <contour>
      <point x="535" y="469"/>
      <point x="466" y="613"/>
      <point x="330" y="613" type="curve" smooth="yes"/>
      <point x="238" y="613"/>
      <point x="159" y="550"/>
      <point x="115" y="482" type="curve"/>
      <point x="119" y="461"/>
      <point x="125" y="441"/>
      <point x="135" y="422" type="curve"/>
      <point x="197" y="422"/>
      <point x="280" y="392"/>
      <point x="280" y="345" type="curve" smooth="yes"/>
      <point x="280" y="326"/>
      <point x="271" y="307"/>
      <point x="258" y="296" type="curve"/>
      <point x="291" y="315" type="line"/>
      <point x="303" y="326"/>
      <point x="312" y="350"/>
      <point x="312" y="368" type="curve" smooth="yes"/>
      <point x="312" y="428"/>
      <point x="226" y="464"/>
      <point x="153" y="472" type="curve"/>
      <point x="163" y="453" type="line"/>
      <point x="215" y="520"/>
      <point x="269" y="562"/>
      <point x="336" y="562" type="curve" smooth="yes"/>
      <point x="422" y="562"/>
      <point x="498" y="486"/>
      <point x="498" y="347" type="curve"/>
      <point x="529" y="285" type="line"/>
    </contour>
    <contour>
      <point x="543" y="310"/>
      <point x="546" y="411"/>
      <point x="553" y="466" type="curve" smooth="yes"/>
      <point x="556" y="495"/>
      <point x="561" y="511"/>
      <point x="577" y="520" type="curve" smooth="yes"/>
      <point x="586" y="525"/>
      <point x="604" y="531"/>
      <point x="619" y="535" type="curve"/>
      <point x="622" y="539"/>
      <point x="624" y="549"/>
      <point x="624" y="559" type="curve" smooth="yes"/>
      <point x="624" y="568"/>
      <point x="622" y="577"/>
      <point x="619" y="581" type="curve"/>
      <point x="580" y="572"/>
      <point x="557" y="562"/>
      <point x="545" y="554" type="curve" smooth="yes"/>
      <point x="527" y="542"/>
      <point x="522" y="526"/>
      <point x="517" y="499" type="curve" smooth="yes"/>
      <point x="513" y="477"/>
      <point x="510" y="453"/>
      <point x="508" y="430" type="curve"/>
      <point x="502" y="407" type="line"/>
      <point x="497" y="357"/>
      <point x="495" y="304"/>
      <point x="495" y="255" type="curve"/>
      <point x="543" y="241" type="line"/>
    </contour>
  </outline>
</glyph>
<glyph name="bn_sha_ukaar" format="1">
  <advance width="710"/>
  <outline>
    <contour>
      <point x="600" y="-57"/>
      <point x="660" y="12"/>
      <point x="660" y="101" type="curve" smooth="yes"/>
      <point x="660" y="152"/>
      <point x="633" y="203"/>
      <point x="590" y="242" type="curve"/>
      <point x="557" y="216" type="line"/>
      <point x="593" y="184"/>
      <point x="613" y="145"/>
      <point x="613" y="107" type="curve" smooth="yes"/>
      <point x="613" y="47"/>
      <point x="582" y="-3"/>
      <point x="474" y="-3" type="curve" smooth="yes"/>
      <point x="289" y="-3"/>
      <point x="158" y="141"/>
      <point x="64" y="533" type="curve"/>
      <point x="48" y="528"/>
      <point x="33" y="523"/>
      <point x="19" y="515" type="curve"/>
      <point x="90" y="220"/>
      <point x="207" y="-57"/>
      <point x="470" y="-57" type="curve" smooth="yes"/>
    </contour>
    <contour>
      <point x="278" y="312"/>
      <point x="308" y="390"/>
      <point x="308" y="460" type="curve" smooth="yes"/>
      <point x="308" y="490"/>
      <point x="302" y="518"/>
      <point x="293" y="540" type="curve"/>
      <point x="264" y="527" type="line"/>
      <point x="271" y="510"/>
      <point x="274" y="486"/>
      <point x="274" y="464" type="curve" smooth="yes"/>
      <point x="274" y="402"/>
      <point x="254" y="354"/>
      <point x="223" y="354" type="curve" smooth="yes"/>
      <point x="206" y="354"/>
      <point x="194" y="364"/>
      <point x="194" y="394" type="curve" smooth="yes"/>
      <point x="194" y="447"/>
      <point x="231" y="516"/>
      <point x="286" y="514" type="curve"/>
      <point x="293" y="532" type="line"/>
      <point x="271" y="548" type="line"/>
      <point x="191" y="532"/>
      <point x="152" y="455"/>
      <point x="152" y="391" type="curve" smooth="yes"/>
      <point x="152" y="334"/>
      <point x="184" y="312"/>
      <point x="218" y="312" type="curve" smooth="yes"/>
    </contour>
    <contour>
      <point x="161" y="551"/>
      <point x="185" y="569"/>
      <point x="207" y="569" type="curve" smooth="yes"/>
      <point x="254" y="569"/>
      <point x="275" y="526"/>
      <point x="275" y="475" type="curve"/>
      <point x="301" y="456" type="line"/>
      <point x="300" y="552"/>
      <point x="266" y="617"/>
      <point x="200" y="617" type="curve" smooth="yes"/>
      <point x="161" y="617"/>
      <point x="130" y="591"/>
      <point x="108" y="563" type="curve"/>
      <point x="116" y="550"/>
      <point x="126" y="539"/>
      <point x="141" y="532" type="curve"/>
    </contour>
    <contour>
      <point x="404" y="314"/>
      <point x="429" y="349"/>
      <point x="429" y="401" type="curve" smooth="yes"/>
      <point x="429" y="476"/>
      <point x="379" y="540"/>
      <point x="323" y="550" type="curve"/>
      <point x="294" y="518" type="line"/>
      <point x="347" y="518"/>
      <point x="391" y="469"/>
      <point x="391" y="403" type="curve" smooth="yes"/>
      <point x="391" y="372"/>
      <point x="383" y="357"/>
      <point x="364" y="357" type="curve" smooth="yes"/>
      <point x="333" y="357"/>
      <point x="315" y="403"/>
      <point x="315" y="456" type="curve" smooth="yes"/>
      <point x="315" y="486"/>
      <point x="322" y="514"/>
      <point x="332" y="535" type="curve"/>
      <point x="299" y="555" type="line"/>
      <point x="285" y="528"/>
      <point x="276" y="492"/>
      <point x="276" y="451" type="curve" smooth="yes"/>
      <point x="276" y="372"/>
      <point x="307" y="314"/>
      <point x="361" y="314" type="curve" smooth="yes"/>
    </contour>
    <contour>
      <point x="529" y="137"/>
      <point x="565" y="166"/>
      <point x="592" y="211" type="curve"/>
      <point x="555" y="246" type="line"/>
      <point x="530" y="203"/>
      <point x="507" y="184"/>
      <point x="481" y="184" type="curve" smooth="yes"/>
      <point x="454" y="184"/>
      <point x="439" y="200"/>
      <point x="439" y="223" type="curve" smooth="yes"/>
      <point x="439" y="248"/>
      <point x="457" y="268"/>
      <point x="484" y="268" type="curve" smooth="yes"/>
      <point x="520" y="268"/>
      <point x="551" y="240"/>
      <point x="566" y="201" type="curve"/>
      <point x="587" y="240" type="line"/>
      <point x="570" y="281"/>
      <point x="528" y="309"/>
      <point x="484" y="309" type="curve" smooth="yes"/>
      <point x="434" y="309"/>
      <point x="402" y="268"/>
      <point x="402" y="222" type="curve" smooth="yes"/>
      <point x="402" y="171"/>
      <point x="441" y="137"/>
      <point x="487" y="137" type="curve" smooth="yes"/>
    </contour>
    <contour>
      <point x="624" y="256"/>
      <point x="648" y="321"/>
      <point x="648" y="367" type="curve" smooth="yes"/>
      <point x="648" y="444"/>
      <point x="592" y="473"/>
      <point x="592" y="597" type="curve"/>
      <point x="570" y="614"/>
      <point x="550" y="617"/>
      <point x="530" y="616" type="curve"/>
      <point x="508" y="583"/>
      <point x="485" y="535"/>
      <point x="467" y="482" type="curve"/>
      <point x="483" y="459" type="line"/>
      <point x="463" y="558"/>
      <point x="429" y="626"/>
      <point x="374" y="626" type="curve"/>
      <point x="327" y="626"/>
      <point x="289" y="579"/>
      <point x="279" y="516" type="curve"/>
      <point x="320" y="517" type="line"/>
      <point x="330" y="550"/>
      <point x="350" y="572"/>
      <point x="376" y="572" type="curve"/>
      <point x="416" y="572"/>
      <point x="450" y="512"/>
      <point x="464" y="421" type="curve"/>
      <point x="473" y="415"/>
      <point x="485" y="410"/>
      <point x="498" y="408" type="curve"/>
      <point x="517" y="471"/>
      <point x="545" y="538"/>
      <point x="576" y="583" type="curve"/>
      <point x="553" y="583" type="line"/>
      <point x="553" y="470"/>
      <point x="601" y="449"/>
      <point x="601" y="381" type="curve" smooth="yes"/>
      <point x="601" y="336"/>
      <point x="578" y="282"/>
      <point x="547" y="243" type="curve"/>
      <point x="568" y="219" type="line"/>
      <point x="594" y="216" type="line"/>
    </contour>
  </outline>
</glyph>
<glyph name="bn_t_ra" format="1">
  <advance width="508"/>
  <outline>
    <contour>
      <point x="403" y="-82"/>
      <point x="419" y="-80"/>
      <point x="434" y="-74" type="curve"/>
      <point x="448" y="44"/>
      <point x="458" y="191"/>
      <point x="458" y="360" type="curve" smooth="yes"/>
      <point x="458" y="437"/>
      <point x="407" y="488"/>
      <point x="348" y="488" type="curve" smooth="yes"/>
      <point x="263" y="488"/>
      <point x="147" y="377"/>
      <point x="147" y="276" type="curve" smooth="yes"/>
      <point x="147" y="216"/>
      <point x="187" y="181"/>
      <point x="243" y="181" type="curve" smooth="yes"/>
      <point x="272" y="181"/>
      <point x="300" y="190"/>
      <point x="322" y="210" type="curve"/>
      <point x="327" y="220"/>
      <point x="329" y="233"/>
      <point x="329" y="244" type="curve" smooth="yes"/>
      <point x="329" y="253"/>
      <point x="328" y="262"/>
      <point x="324" y="268" type="curve"/>
      <point x="310" y="252"/>
      <point x="285" y="229"/>
      <point x="250" y="229" type="curve" smooth="yes"/>
      <point x="221" y="229"/>
      <point x="199" y="244"/>
      <point x="199" y="280" type="curve" smooth="yes"/>
      <point x="199" y="357"/>
      <point x="293" y="448"/>
      <point x="356" y="448" type="curve" smooth="yes"/>
      <point x="388" y="448"/>
      <point x="413" y="423"/>
      <point x="413" y="376" type="curve" smooth="yes"/>
      <point x="413" y="227"/>
      <point x="403" y="57"/>
      <point x="386" y="-57" type="curve"/>
      <point x="401" y="-55" type="line"/>
      <point x="378" y="14"/>
      <point x="352" y="50"/>
      <point x="300" y="50" type="curve" smooth="yes"/>
      <point x="248" y="50"/>
      <point x="185" y="14"/>
      <point x="138" y="14" type="curve" smooth="yes"/>
      <point x="103" y="14"/>
      <point x="74" y="32"/>
      <point x="74" y="80" type="curve" smooth="yes"/>
      <point x="74" y="108"/>
      <point x="87" y="151"/>
      <point x="104" y="177" type="curve"/>
      <point x="93" y="185"/>
      <point x="81" y="190"/>
      <point x="63" y="191" type="curve"/>
      <point x="45" y="157"/>
      <point x="28" y="111"/>
      <point x="28" y="71" type="curve" smooth="yes"/>
      <point x="28" y="9"/>
      <point x="66" y="-38"/>
      <point x="130" y="-38" type="curve" smooth="yes"/>
      <point x="187" y="-38"/>
      <point x="256" y="-1"/>
      <point x="304" y="-1" type="curve" smooth="yes"/>
      <point x="355" y="-1"/>
      <point x="368" y="-42"/>
      <point x="388" y="-82" type="curve"/>
    </contour>
    <contour>
      <point x="56" y="550"/>
      <point x="164" y="563"/>
      <point x="258" y="563" type="curve" smooth="yes"/>
      <point x="352" y="563"/>
      <point x="463" y="550"/>
      <point x="508" y="535" type="curve"/>
      <point x="510" y="541"/>
      <point x="511" y="552"/>
      <point x="511" y="562" type="curve" smooth="yes"/>
      <point x="511" y="569"/>
      <point x="511" y="576"/>
      <point x="508" y="581" type="curve"/>
      <point x="466" y="599"/>
      <point x="351" y="613"/>
      <point x="258" y="613" type="curve" smooth="yes"/>
      <point x="165" y="613"/>
      <point x="55" y="599"/>
      <point x="0" y="581" type="curve"/>
      <point x="-3" y="576"/>
      <point x="-5" y="569"/>
      <point x="-5" y="561" type="curve" smooth="yes"/>
      <point x="-5" y="552"/>
      <point x="-3" y="543"/>
      <point x="0" y="535" type="curve"/>
    </contour>
  </outline>
</glyph>
<glyph name="bn_ta.001" format="1">
  <advance width="565"/>
  <outline>
    <contour>
      <point x="478" y="-17"/>
      <point x="543" y="68"/>
      <point x="543" y="203" type="curve" smooth="yes"/>
      <point x="543" y="361"/>
      <point x="455" y="479"/>
      <point x="355" y="479" type="curve" smooth="yes"/>
      <point x="287" y="479"/>
      <point x="246" y="426"/>
      <point x="246" y="357" type="curve" smooth="yes"/>
      <point x="246" y="308"/>
      <point x="266" y="257"/>
      <point x="294" y="225" type="curve"/>
      <point x="300" y="222"/>
      <point x="308" y="222"/>
      <point x="313" y="222" type="curve" smooth="yes"/>
      <point x="329" y="222"/>
      <point x="343" y="227"/>
      <point x="354" y="234" type="curve"/>
      <point x="320" y="263"/>
      <point x="300" y="311"/>
      <point x="300" y="357" type="curve" smooth="yes"/>
      <point x="300" y="403"/>
      <point x="318" y="437"/>
      <point x="362" y="437" type="curve" smooth="yes"/>
      <point x="432" y="437"/>
      <point x="495" y="354"/>
      <point x="495" y="216" type="curve" smooth="yes"/>
      <point x="495" y="98"/>
      <point x="449" y="39"/>
      <point x="365" y="39" type="curve" smooth="yes"/>
      <point x="237" y="39"/>
      <point x="136" y="184"/>
      <point x="63" y="455" type="curve"/>
      <point x="48" y="448"/>
      <point x="34" y="440"/>
      <point x="21" y="430" type="curve"/>
      <point x="72" y="246"/>
      <point x="166" y="-17"/>
      <point x="365" y="-17" type="curve" smooth="yes"/>
    </contour>
    <contour>
      <point x="71" y="549"/>
      <point x="156" y="562"/>
      <point x="282" y="562" type="curve" smooth="yes"/>
      <point x="398" y="562"/>
      <point x="493" y="549"/>
      <point x="565" y="535" type="curve"/>
      <point x="568" y="541"/>
      <point x="570" y="550"/>
      <point x="570" y="558" type="curve" smooth="yes"/>
      <point x="570" y="567"/>
      <point x="568" y="576"/>
      <point x="565" y="581" type="curve"/>
      <point x="494" y="598"/>
      <point x="399" y="612"/>
      <point x="282" y="612" type="curve" smooth="yes"/>
      <point x="155" y="612"/>
      <point x="69" y="598"/>
      <point x="-1" y="581" type="curve"/>
      <point x="-4" y="576"/>
      <point x="-6" y="567"/>
      <point x="-6" y="558" type="curve" smooth="yes"/>
      <point x="-6" y="549"/>
      <point x="-4" y="540"/>
      <point x="-1" y="535" type="curve"/>
    </contour>
  </outline>
</glyph>
